<?xml version="1.0" standalone="no"?>
<!DOCTYPE svg PUBLIC "-//W3C//DTD SVG 20010904//EN"
 "http://www.w3.org/TR/2001/REC-SVG-20010904/DTD/svg10.dtd">
<svg version="1.0" xmlns="http://www.w3.org/2000/svg"
 width="728.000000pt" height="728.000000pt" viewBox="0 0 728.000000 728.000000"
 preserveAspectRatio="xMidYMid meet">
<metadata>
Created by potrace 1.11, written by Peter Selinger 2001-2013
</metadata>
<g transform="translate(0.000000,728.000000) scale(0.100000,-0.100000)"
fill="#000000" stroke="none">
<path d="M3130 6139 c-415 -51 -827 -448 -999 -963 l-30 -90 -61 -17 c-177
-48 -331 -184 -469 -413 -89 -147 -209 -405 -260 -562 -128 -389 -145 -716
-51 -996 50 -148 94 -222 195 -326 l90 -92 -1 -52 -2 -52 -53 -11 c-68 -14
-109 -36 -155 -82 -67 -66 -154 -290 -154 -395 0 -68 35 -123 116 -186 88 -68
168 -113 286 -161 106 -43 286 -103 367 -123 l54 -14 1 -121 c1 -114 3 -123
25 -147 61 -65 265 -92 636 -83 382 9 466 37 469 152 1 27 5 39 14 37 7 -1
140 -5 295 -9 282 -6 520 4 759 31 l110 12 -7 -43 c-20 -134 141 -183 605
-183 307 1 410 18 471 78 42 43 51 76 98 362 42 249 55 406 49 588 -3 87 -1
168 4 182 21 57 137 156 310 264 58 36 134 93 167 125 121 117 121 211 1 211
-40 0 -69 -5 -158 -25 l-23 -6 22 43 c12 23 40 67 63 97 39 52 41 58 41 124 0
60 -3 71 -24 88 -13 10 -33 19 -46 19 -19 0 -24 7 -30 48 -12 90 -37 167 -81
261 -52 111 -111 195 -192 275 l-60 60 61 26 c96 40 237 141 237 168 0 4 35
43 78 87 122 125 172 243 172 405 0 86 -16 153 -52 225 -26 49 -93 134 -134
167 -13 11 -23 34 -27 59 -11 83 -132 165 -332 224 -49 15 -96 29 -102 31 -7
2 -13 13 -13 26 0 41 -32 153 -65 223 -84 183 -231 310 -425 370 -75 23 -248
31 -351 15 -144 -21 -345 -95 -487 -179 -29 -17 -59 -31 -66 -31 -7 0 -25 14
-42 31 -158 168 -553 284 -844 248z m540 -719 c268 -35 504 -151 691 -339 184
-186 259 -370 214 -527 -45 -158 -149 -252 -340 -309 -81 -24 -107 -27 -250
-28 -176 -1 -274 12 -465 62 -400 104 -630 228 -780 421 -127 164 -146 184
-194 210 -88 47 -73 74 45 83 112 9 154 31 242 131 158 178 238 235 382 271
131 32 316 43 455 25z m1730 -115 c317 -71 546 -237 610 -444 85 -271 -85
-550 -416 -682 -202 -80 -433 -107 -644 -74 -203 30 -332 102 -381 209 -25 55
-24 75 7 130 73 130 70 275 -7 428 -26 51 -30 69 -25 104 22 167 179 293 421
340 92 18 334 12 435 -11z"/>
<path d="M3595 5320 c-103 -21 -184 -78 -230 -161 -26 -47 -30 -64 -30 -134 0
-104 23 -170 82 -235 55 -61 141 -105 238 -120 89 -14 144 -7 222 31 107 52
165 143 166 260 0 54 -6 79 -32 135 -79 170 -244 259 -416 224z m45 -135 c51
-26 48 -85 -6 -105 -64 -25 -118 65 -62 104 28 20 32 20 68 1z m250 -170 c82
-42 55 -145 -39 -145 -48 0 -81 35 -81 84 1 66 57 94 120 61z m-246 -148 c21
-16 15 -51 -11 -61 -39 -15 -78 29 -53 59 15 19 41 19 64 2z"/>
<path d="M5305 5167 c-123 -41 -206 -136 -220 -252 -11 -87 15 -156 83 -224
85 -85 135 -106 252 -106 84 0 102 3 152 28 146 72 198 227 122 367 -76 139
-262 229 -389 187z m35 -132 c52 -27 46 -84 -12 -104 -57 -20 -103 55 -61 101
20 22 35 23 73 3z m253 -128 c71 -30 73 -107 4 -141 -31 -15 -43 -16 -66 -6
-55 22 -69 104 -25 139 31 25 44 26 87 8z m-221 -144 c37 -34 8 -80 -39 -62
-25 9 -31 47 -11 67 16 16 28 15 50 -5z"/>
</g>
</svg>
